<svg width="195" height="278" viewBox="0 0 195 278" fill="none" xmlns="http://www.w3.org/2000/svg">
<path d="M192.24 79.4297C193.315 79.378 194.225 80.1786 194.299 81.2402C198.281 138.256 162.444 200.998 115.64 252.745C114.934 253.525 113.633 252.82 113.889 251.805C117.96 235.652 118.604 221.288 115.821 208.71C93.5583 244.629 41.4624 272.184 3.17969 277.964C0.382 278.386 -1.09487 275.081 0.960938 273.157C53.6288 223.883 72.3362 202.174 90.2139 174.143C63.9967 188.005 42.3342 197.788 22.0967 201.218C19.9215 201.586 18.2139 199.482 18.9463 197.424C51.7491 105.252 130.72 82.3892 192.24 79.4297ZM115.171 0C134.911 0 150.914 16.8916 150.914 37.7285C150.914 58.5656 134.911 75.458 115.171 75.458C95.4306 75.4579 79.4277 58.5655 79.4277 37.7285C79.4279 16.8917 95.4307 0.00010895 115.171 0Z" fill="#1A1F71"/>
</svg>
